<svg width="239" height="60" viewBox="0 0 239 60" fill="none" xmlns="http://www.w3.org/2000/svg">
<path d="M62.8977 47V20.8182H70.1591V47H62.8977ZM66.5455 17.4432C65.4659 17.4432 64.5398 17.0852 63.767 16.3693C63.0057 15.642 62.625 14.7727 62.625 13.7614C62.625 12.7614 63.0057 11.9034 63.767 11.1875C64.5398 10.4602 65.4659 10.0966 66.5455 10.0966C67.625 10.0966 68.5455 10.4602 69.3068 11.1875C70.0795 11.9034 70.4659 12.7614 70.4659 13.7614C70.4659 14.7727 70.0795 15.642 69.3068 16.3693C68.5455 17.0852 67.625 17.4432 66.5455 17.4432Z" fill="white"/>
<path d="M76.1122 12.0909H85.2145L94.8281 35.5455H95.2372L104.851 12.0909H113.953V47H106.794V24.2784H106.504L97.4702 46.8295H92.5952L83.5611 24.1932H83.2713V47H76.1122V12.0909ZM127.364 47.4943C125.693 47.4943 124.205 47.2045 122.898 46.625C121.591 46.0341 120.557 45.1648 119.795 44.017C119.045 42.858 118.67 41.4148 118.67 39.6875C118.67 38.233 118.938 37.0114 119.472 36.0227C120.006 35.0341 120.733 34.2386 121.653 33.6364C122.574 33.0341 123.619 32.5795 124.79 32.2727C125.972 31.9659 127.21 31.75 128.506 31.625C130.028 31.4659 131.256 31.3182 132.188 31.1818C133.119 31.0341 133.795 30.8182 134.216 30.5341C134.636 30.25 134.847 29.8295 134.847 29.2727V29.1705C134.847 28.0909 134.506 27.2557 133.824 26.6648C133.153 26.0739 132.199 25.7784 130.96 25.7784C129.653 25.7784 128.614 26.0682 127.841 26.6477C127.068 27.2159 126.557 27.9318 126.307 28.7955L119.591 28.25C119.932 26.6591 120.602 25.2841 121.602 24.125C122.602 22.9545 123.892 22.0568 125.472 21.4318C127.063 20.7955 128.903 20.4773 130.994 20.4773C132.449 20.4773 133.841 20.6477 135.17 20.9886C136.511 21.3295 137.699 21.858 138.733 22.5739C139.778 23.2898 140.602 24.2102 141.205 25.3352C141.807 26.4489 142.108 27.7841 142.108 29.3409V47H135.222V43.3693H135.017C134.597 44.1875 134.034 44.9091 133.33 45.5341C132.625 46.1477 131.778 46.6307 130.79 46.983C129.801 47.3239 128.659 47.4943 127.364 47.4943ZM129.443 42.483C130.511 42.483 131.455 42.2727 132.273 41.8523C133.091 41.4205 133.733 40.8409 134.199 40.1136C134.665 39.3864 134.898 38.5625 134.898 37.642V34.8636C134.67 35.0114 134.358 35.1477 133.96 35.2727C133.574 35.3864 133.136 35.4943 132.648 35.5966C132.159 35.6875 131.67 35.7727 131.182 35.8523C130.693 35.9205 130.25 35.983 129.852 36.0398C129 36.1648 128.256 36.3636 127.619 36.6364C126.983 36.9091 126.489 37.2784 126.136 37.7443C125.784 38.1989 125.608 38.767 125.608 39.4489C125.608 40.4375 125.966 41.1932 126.682 41.7159C127.409 42.2273 128.33 42.483 129.443 42.483ZM147.741 47V20.8182H154.781V25.3864H155.054C155.531 23.7614 156.332 22.5341 157.457 21.7045C158.582 20.8636 159.878 20.4432 161.344 20.4432C161.707 20.4432 162.099 20.4659 162.52 20.5114C162.94 20.5568 163.31 20.6193 163.628 20.6989V27.142C163.287 27.0398 162.815 26.9489 162.213 26.8693C161.611 26.7898 161.06 26.75 160.56 26.75C159.491 26.75 158.537 26.983 157.696 27.4489C156.866 27.9034 156.207 28.5398 155.719 29.358C155.241 30.1761 155.003 31.1193 155.003 32.1875V47H147.741ZM173.962 39.4659L173.979 30.7557H175.036L183.422 20.8182H191.757L180.49 33.9773H178.768L173.962 39.4659ZM167.382 47V12.0909H174.643V47H167.382ZM183.746 47L176.041 35.5966L180.882 30.4659L192.251 47H183.746ZM206.173 47.5114C203.48 47.5114 201.162 46.9659 199.219 45.875C197.287 44.7727 195.798 43.2159 194.753 41.2045C193.707 39.1818 193.185 36.7898 193.185 34.0284C193.185 31.3352 193.707 28.9716 194.753 26.9375C195.798 24.9034 197.27 23.3182 199.168 22.1818C201.077 21.0455 203.315 20.4773 205.884 20.4773C207.611 20.4773 209.219 20.7557 210.707 21.3125C212.207 21.858 213.514 22.6818 214.628 23.7841C215.753 24.8864 216.628 26.2727 217.253 27.9432C217.878 29.6023 218.19 31.5455 218.19 33.7727V35.767H196.082V31.267H211.355C211.355 30.2216 211.128 29.2955 210.673 28.4886C210.219 27.6818 209.588 27.0511 208.781 26.5966C207.986 26.1307 207.06 25.8977 206.003 25.8977C204.901 25.8977 203.923 26.1534 203.071 26.6648C202.23 27.1648 201.571 27.8409 201.094 28.6932C200.616 29.5341 200.372 30.4716 200.361 31.5057V35.7841C200.361 37.0795 200.599 38.1989 201.077 39.142C201.565 40.0852 202.253 40.8125 203.139 41.3239C204.026 41.8352 205.077 42.0909 206.293 42.0909C207.099 42.0909 207.838 41.9773 208.509 41.75C209.179 41.5227 209.753 41.1818 210.23 40.7273C210.707 40.2727 211.071 39.7159 211.321 39.0568L218.037 39.5C217.696 41.1136 216.997 42.5227 215.94 43.7273C214.895 44.9205 213.543 45.8523 211.884 46.5227C210.236 47.1818 208.332 47.5114 206.173 47.5114ZM236.855 20.8182V26.2727H221.088V20.8182H236.855ZM224.668 14.5455H231.929V38.9545C231.929 39.625 232.031 40.1477 232.236 40.5227C232.44 40.8864 232.724 41.142 233.088 41.2898C233.463 41.4375 233.895 41.5114 234.384 41.5114C234.724 41.5114 235.065 41.483 235.406 41.4261C235.747 41.358 236.009 41.3068 236.19 41.2727L237.332 46.6761C236.969 46.7898 236.457 46.9205 235.798 47.0682C235.139 47.2273 234.338 47.3239 233.395 47.358C231.645 47.4261 230.111 47.1932 228.793 46.6591C227.486 46.125 226.469 45.2955 225.741 44.1705C225.014 43.0455 224.656 41.625 224.668 39.9091V14.5455Z" fill="#FB0202"/>
<g clip-path="url(#clip0_163_613)">
<path d="M38.875 32.5C40.75 32.5 42.4 31.475 43.25 29.925L52.2 13.7C53.125 12.05 51.925 10 50.025 10H13.025L10.675 5H2.5V10H7.5L16.5 28.975L13.125 35.075C11.3 38.425 13.7 42.5 17.5 42.5H47.5V37.5H17.5L20.25 32.5H38.875ZM15.4 15H45.775L38.875 27.5H21.325L15.4 15ZM17.5 45C14.75 45 12.525 47.25 12.525 50C12.525 52.75 14.75 55 17.5 55C20.25 55 22.5 52.75 22.5 50C22.5 47.25 20.25 45 17.5 45ZM42.5 45C39.75 45 37.525 47.25 37.525 50C37.525 52.75 39.75 55 42.5 55C45.25 55 47.5 52.75 47.5 50C47.5 47.25 45.25 45 42.5 45Z" fill="white"/>
</g>
<defs>
<clipPath id="clip0_163_613">
<rect width="60" height="60" fill="white"/>
</clipPath>
</defs>
</svg>
