<svg width="1024" height="220" viewBox="0 0 1024 220" fill="none" xmlns="http://www.w3.org/2000/svg">
<path d="M206.512 184.746V70.2006H238.28V184.746H206.512ZM222.471 55.435C217.748 55.435 213.696 53.869 210.315 50.7369C206.984 47.555 205.319 43.7518 205.319 39.3271C205.319 34.9521 206.984 31.1985 210.315 28.0664C213.696 24.8846 217.748 23.2937 222.471 23.2937C227.194 23.2937 231.221 24.8846 234.552 28.0664C237.932 31.1985 239.623 34.9521 239.623 39.3271C239.623 43.7518 237.932 47.555 234.552 50.7369C231.221 53.869 227.194 55.435 222.471 55.435Z" fill="black"/>
<path d="M264.325 32.0188H304.148L346.208 134.632H347.997L390.057 32.0188H429.879V184.746H398.558V85.3391H397.291L357.766 184H336.438L296.914 84.9663H295.646V184.746H264.325V32.0188ZM488.55 186.909C481.242 186.909 474.729 185.641 469.012 183.105C463.295 180.52 458.771 176.717 455.44 171.696C452.158 166.625 450.518 160.311 450.518 152.754C450.518 146.39 451.686 141.046 454.023 136.721C456.359 132.395 459.541 128.915 463.568 126.28C467.595 123.645 472.169 121.657 477.29 120.314C482.46 118.972 487.879 118.027 493.547 117.48C500.209 116.784 505.578 116.138 509.655 115.542C513.731 114.895 516.69 113.951 518.529 112.708C520.369 111.465 521.288 109.625 521.288 107.189V106.742C521.288 102.019 519.797 98.3647 516.814 95.7795C513.881 93.1942 509.705 91.9016 504.285 91.9016C498.568 91.9016 494.019 93.1694 490.638 95.7049C487.258 98.1907 485.021 101.323 483.927 105.101L454.545 102.715C456.036 95.7546 458.969 89.739 463.344 84.668C467.719 79.5472 473.362 75.6197 480.273 72.8853C487.233 70.1012 495.287 68.7092 504.435 68.7092C510.798 68.7092 516.888 69.4549 522.705 70.9464C528.572 72.4379 533.767 74.7496 538.291 77.8817C542.865 81.0138 546.469 85.0408 549.104 89.9627C551.739 94.8349 553.057 100.676 553.057 107.488V184.746H522.929V168.862H522.034C520.195 172.441 517.734 175.598 514.651 178.333C511.569 181.017 507.865 183.13 503.54 184.672C499.214 186.163 494.218 186.909 488.55 186.909ZM497.648 164.984C502.322 164.984 506.448 164.064 510.028 162.225C513.607 160.336 516.416 157.8 518.455 154.618C520.493 151.436 521.512 147.832 521.512 143.805V131.65C520.518 132.296 519.151 132.892 517.41 133.439C515.72 133.936 513.806 134.409 511.668 134.856C509.53 135.254 507.393 135.627 505.255 135.975C503.117 136.273 501.178 136.547 499.438 136.795C495.709 137.342 492.453 138.212 489.669 139.405C486.885 140.598 484.722 142.214 483.181 144.252C481.64 146.241 480.869 148.727 480.869 151.71C480.869 156.035 482.435 159.341 485.567 161.628C488.749 163.865 492.776 164.984 497.648 164.984ZM577.703 184.746V70.2006H608.502V90.1864H609.696C611.784 83.0771 615.289 77.7077 620.211 74.0785C625.132 70.3995 630.8 68.56 637.213 68.56C638.804 68.56 640.519 68.6594 642.359 68.8583C644.198 69.0572 645.814 69.3306 647.206 69.6786V97.8675C645.715 97.4201 643.652 97.0224 641.017 96.6744C638.382 96.3263 635.97 96.1523 633.783 96.1523C629.11 96.1523 624.934 97.1715 621.255 99.2099C617.625 101.199 614.742 103.983 612.604 107.562C610.516 111.142 609.472 115.268 609.472 119.941V184.746H577.703ZM692.417 151.784L692.491 113.677H697.115L733.805 70.2006H770.272L720.978 127.772H713.447L692.417 151.784ZM663.631 184.746V32.0188H695.4V184.746H663.631ZM735.222 184.746L701.515 134.856L722.694 112.409L772.434 184.746H735.222ZM833.343 186.983C821.56 186.983 811.418 184.597 802.917 179.824C794.465 175.002 787.952 168.191 783.378 159.391C778.804 150.542 776.517 140.076 776.517 127.995C776.517 116.213 778.804 105.872 783.378 96.9727C787.952 88.0735 794.39 81.1381 802.693 76.1665C811.045 71.195 820.839 68.7092 832.075 68.7092C839.632 68.7092 846.667 69.9272 853.179 72.3633C859.742 74.7496 865.459 78.354 870.331 83.1765C875.253 87.9989 879.081 94.0643 881.816 101.373C884.55 108.631 885.917 117.132 885.917 126.877V135.602H789.195V115.914H856.013C856.013 111.341 855.019 107.289 853.03 103.759C851.042 100.229 848.282 97.4698 844.752 95.4812C841.272 93.4428 837.22 92.4236 832.597 92.4236C827.774 92.4236 823.499 93.5423 819.77 95.7795C816.091 97.967 813.208 100.925 811.12 104.654C809.032 108.333 807.963 112.434 807.913 116.958V135.676C807.913 141.344 808.957 146.241 811.045 150.368C813.183 154.494 816.191 157.676 820.068 159.913C823.946 162.15 828.545 163.269 833.865 163.269C837.394 163.269 840.626 162.772 843.559 161.777C846.493 160.783 849.003 159.292 851.091 157.303C853.179 155.314 854.77 152.878 855.864 149.995L885.246 151.934C883.755 158.993 880.697 165.158 876.073 170.428C871.5 175.648 865.583 179.725 858.325 182.658C851.116 185.542 842.789 186.983 833.343 186.983ZM967.576 70.2006V94.0643H898.595V70.2006H967.576ZM914.255 42.7575H946.024V149.547C946.024 152.48 946.471 154.767 947.366 156.408C948.261 157.999 949.504 159.118 951.095 159.764C952.735 160.41 954.625 160.733 956.762 160.733C958.254 160.733 959.745 160.609 961.237 160.36C962.728 160.062 963.872 159.838 964.667 159.689L969.664 183.329C968.073 183.826 965.836 184.398 962.952 185.044C960.068 185.74 956.564 186.163 952.437 186.312C944.781 186.61 938.069 185.591 932.302 183.255C926.585 180.918 922.135 177.289 918.953 172.367C915.772 167.445 914.206 161.23 914.255 153.723V42.7575Z" fill="#FB0202"/>
<g clip-path="url(#clip0_116_603)">
<path d="M142.462 119.1C149.333 119.1 155.38 115.344 158.495 109.664L191.293 50.2053C194.683 44.1587 190.285 36.6462 183.323 36.6462H47.7317L39.1198 18.3231H9.1615V36.6462H27.4846L60.4662 106.182L48.0981 128.537C41.4102 140.813 50.2053 155.746 64.1308 155.746H174.07V137.423H64.1308L74.2086 119.1H142.462ZM56.4351 54.9693H167.748L142.462 100.777H78.148L56.4351 54.9693ZM64.1308 164.908C54.0531 164.908 45.8993 173.153 45.8993 183.231C45.8993 193.309 54.0531 201.554 64.1308 201.554C74.2085 201.554 82.4539 193.309 82.4539 183.231C82.4539 173.153 74.2085 164.908 64.1308 164.908ZM155.746 164.908C145.669 164.908 137.515 173.153 137.515 183.231C137.515 193.309 145.669 201.554 155.746 201.554C165.824 201.554 174.07 193.309 174.07 183.231C174.07 173.153 165.824 164.908 155.746 164.908Z" fill="black"/>
</g>
<defs>
<clipPath id="clip0_116_603">
<rect width="219.877" height="219.877" fill="white"/>
</clipPath>
</defs>
</svg>
